<?xml version="1.0" standalone="no"?><!DOCTYPE svg PUBLIC "-//W3C//DTD SVG 1.1//EN" "http://www.w3.org/Graphics/SVG/1.1/DTD/svg11.dtd"><svg t="1739479740325" class="icon" viewBox="0 0 1024 1024" version="1.1" xmlns="http://www.w3.org/2000/svg" p-id="7266" data-spm-anchor-id="a313x.manage_type_myprojects.0.i48.3e983a81tNb4hX" xmlns:xlink="http://www.w3.org/1999/xlink" width="200" height="200"><path d="M507.904 52.224c63.488 0 123.392 12.288 179.2 36.352 55.808 24.064 104.448 56.832 145.92 98.304 41.472 41.472 74.24 89.6 98.304 145.408s36.352 115.2 36.352 178.688c0 63.488-12.288 123.392-36.352 179.2-24.064 55.808-56.832 104.448-98.304 145.92-41.472 41.472-90.112 74.24-145.92 98.304-55.808 24.064-115.712 36.352-179.2 36.352-63.488 0-122.88-12.288-178.688-36.352-55.808-24.064-103.936-56.832-145.408-98.304s-74.24-90.112-98.304-145.92-36.352-115.712-36.352-179.2c0-63.488 12.288-122.88 36.352-178.688C109.568 276.48 142.336 228.352 183.808 186.88S273.408 112.64 329.216 88.576s115.2-36.352 178.688-36.352zM736.256 573.44c20.48 0 38.912-5.12 55.296-15.872 16.384-10.752 24.576-26.624 24.576-47.616 0-20.48-8.192-35.84-24.576-45.568-16.384-9.728-34.816-14.848-55.296-14.848H283.648c-20.48 0-39.424 5.12-56.32 14.848s-25.6 25.088-25.6 45.568c0 20.992 8.704 36.864 25.6 47.616 16.896 10.752 35.84 15.872 56.32 15.872h452.608z" fill="#515151" p-id="7267" data-spm-anchor-id="a313x.manage_type_myprojects.0.i47.3e983a81tNb4hX" class=""></path></svg>