<?xml version="1.0" standalone="no"?><!DOCTYPE svg PUBLIC "-//W3C//DTD SVG 1.1//EN" "http://www.w3.org/Graphics/SVG/1.1/DTD/svg11.dtd"><svg t="1739481775487" class="icon" viewBox="0 0 1024 1024" version="1.1" xmlns="http://www.w3.org/2000/svg" p-id="4031" xmlns:xlink="http://www.w3.org/1999/xlink" width="200" height="200"><path d="M229.376 304.64c0 145.408 117.76 263.68 263.68 263.68s263.68-117.76 263.68-263.68S638.464 40.96 493.056 40.96 229.376 158.72 229.376 304.64z" fill="#515151" p-id="4032"></path><path d="M840.704 522.24c-32.768-39.936-93.696-47.104-129.024-9.728-54.784 58.368-132.096 94.72-218.624 94.72-76.8 0-146.432-28.672-199.68-75.264-40.448-35.328-103.424-21.504-133.632 23.04-45.568 67.072-72.192 147.456-72.192 234.496 0 17.408 1.024 34.816 3.584 51.712C101.888 924.672 179.2 983.04 263.168 983.04h496.128c92.672 0 168.96-71.68 176.128-163.84 0.512-9.728 1.024-19.456 1.024-29.696 0-101.376-35.84-194.56-95.744-267.264z" fill="#515151" p-id="4033"></path></svg>